<svg width="160" height="43" viewBox="0 0 160 43" fill="none" xmlns="http://www.w3.org/2000/svg">
<g clip-path="url(#clip0_3783_1441)">
<path d="M68.9702 18.4788C69.1228 18.4788 69.2363 18.3262 69.1815 18.1814C68.5398 16.4247 67.4091 14.8479 65.9341 13.8424C64.3769 12.7821 62.538 12.2422 60.4722 12.2422C58.7037 12.2422 57.0878 12.6491 55.6637 13.4551C54.2395 14.2611 53.0971 15.3996 52.2754 16.8433C51.4538 18.2871 51.0352 19.9381 51.0352 21.7575C51.0352 23.5768 51.4538 25.2279 52.2754 26.6599C53.0971 28.0958 54.2395 29.2304 55.6637 30.0325C57.0878 30.8385 58.7037 31.2454 60.4722 31.2454C62.5576 31.2454 64.4004 30.7093 65.9458 29.6569C67.4169 28.6592 68.5398 27.0785 69.1815 25.3022C69.2324 25.1575 69.1228 25.0049 68.9702 25.0049H64.8855C64.8034 25.0049 64.729 25.0518 64.6899 25.1262C64.2869 25.9165 63.6922 26.5973 62.9997 27.0042C62.268 27.4346 61.4073 27.6497 60.4448 27.6497C59.4119 27.6497 58.4807 27.4072 57.6825 26.9259C56.8805 26.4447 56.2506 25.7522 55.8006 24.864C55.3507 23.972 55.1238 22.9273 55.1238 21.7496C55.1238 20.572 55.3507 19.5038 55.8006 18.6235C56.2466 17.7471 56.8805 17.0585 57.6825 16.5773C58.4846 16.096 59.4158 15.8535 60.4448 15.8535C61.4073 15.8535 62.268 16.0647 62.9997 16.4873C63.6922 16.8864 64.283 17.5632 64.686 18.3536C64.7251 18.4279 64.7994 18.4749 64.8816 18.4749H68.9663L68.9702 18.4788Z" fill="white"/>
<path d="M82.7155 16.7846C81.8391 16.2916 80.8257 16.0451 79.7029 16.0451C78.7247 16.0451 77.8209 16.229 77.0149 16.5968C76.3537 16.898 75.7981 17.2971 75.3482 17.7862V11.6005C75.3482 11.4792 75.2504 11.3774 75.1252 11.3774H71.5843C71.4631 11.3774 71.3613 11.4753 71.3613 11.6005V30.8697C71.3613 30.991 71.4591 31.0927 71.5843 31.0927H75.1252C75.2465 31.0927 75.3482 30.9949 75.3482 30.8697V22.9116C75.3482 21.8043 75.6299 20.9475 76.1855 20.3567C76.7371 19.7737 77.5079 19.4764 78.4704 19.4764C79.4329 19.4764 80.1724 19.7737 80.7162 20.3567C81.264 20.9436 81.5378 21.8043 81.5378 22.9116V30.8697C81.5378 30.991 81.6356 31.0927 81.7608 31.0927H85.3017C85.423 31.0927 85.5247 30.9949 85.5247 30.8697V22.4147C85.5247 21.0844 85.2782 19.9263 84.7852 18.9756C84.2923 18.017 83.5958 17.2815 82.7155 16.7885V16.7846Z" fill="white"/>
<path d="M98.8777 18.0364C98.4161 17.5083 97.837 17.0583 97.1562 16.6905C96.3228 16.2445 95.3408 16.0176 94.2375 16.0176C92.9737 16.0176 91.8117 16.3345 90.7866 16.9566C89.7615 17.5826 88.9399 18.4825 88.3452 19.6406C87.7505 20.7948 87.4492 22.1329 87.4492 23.6196C87.4492 25.1064 87.7505 26.4758 88.3452 27.6339C88.9399 28.7998 89.7615 29.7154 90.7866 30.357C91.8117 30.9987 92.9659 31.3234 94.2101 31.3234C95.3134 31.3234 96.3072 31.0926 97.1562 30.6348C97.8487 30.2631 98.4278 29.8053 98.8777 29.2693V30.8656C98.8777 30.9869 98.9755 31.0887 99.1007 31.0887H102.665C102.786 31.0887 102.888 30.9908 102.888 30.8656V16.4714C102.888 16.3501 102.79 16.2484 102.665 16.2484H99.1007C98.9795 16.2484 98.8777 16.3462 98.8777 16.4714V18.0325V18.0364ZM92.0269 21.4286C92.3712 20.8183 92.8211 20.3488 93.3728 20.0318C93.9245 19.7149 94.5309 19.5545 95.1804 19.5545C95.8299 19.5545 96.4481 19.7188 97.0154 20.0436C97.5788 20.3683 98.0365 20.8417 98.373 21.4521C98.7095 22.0624 98.8777 22.8097 98.8777 23.6705C98.8777 24.5313 98.7095 25.2785 98.373 25.8889C98.0404 26.4993 97.5827 26.9727 97.0154 27.2974C95.8964 27.9391 94.5153 27.9625 93.3845 27.2857C92.825 26.9531 92.3673 26.464 92.0269 25.838C91.6826 25.2081 91.5104 24.4647 91.5104 23.6196C91.5104 22.7745 91.6826 22.039 92.0269 21.4286Z" fill="white"/>
<path d="M118.068 17.7273C116.977 16.6083 115.529 16.041 113.761 16.041C112.833 16.041 111.969 16.2288 111.19 16.5927C110.549 16.8939 109.993 17.2969 109.539 17.7899V16.4714C109.539 16.3501 109.441 16.2484 109.316 16.2484H105.775C105.654 16.2484 105.552 16.3462 105.552 16.4714V30.8656C105.552 30.9869 105.65 31.0886 105.775 31.0886H109.316C109.437 31.0886 109.539 30.9908 109.539 30.8656V22.9075C109.539 21.8003 109.821 20.9434 110.376 20.3526C110.928 19.7697 111.699 19.4723 112.661 19.4723C113.624 19.4723 114.363 19.7697 114.907 20.3526C115.455 20.9395 115.729 21.8003 115.729 22.9075V30.8656C115.729 30.9869 115.827 31.0886 115.952 31.0886H119.493C119.614 31.0886 119.716 30.9908 119.716 30.8656V22.4106C119.716 20.4191 119.164 18.8463 118.072 17.7273H118.068Z" fill="white"/>
<path d="M134.869 17.7273C133.778 16.6083 132.33 16.041 130.562 16.041C129.634 16.041 128.77 16.2288 127.991 16.5927C127.349 16.8939 126.794 17.2969 126.34 17.7899V16.4714C126.34 16.3501 126.242 16.2484 126.117 16.2484H122.576C122.455 16.2484 122.353 16.3462 122.353 16.4714V30.8656C122.353 30.9869 122.451 31.0886 122.576 31.0886H126.117C126.238 31.0886 126.34 30.9908 126.34 30.8656V22.9075C126.34 21.8003 126.622 20.9434 127.177 20.3526C127.729 19.7697 128.5 19.4723 129.462 19.4723C130.425 19.4723 131.164 19.7697 131.708 20.3526C132.256 20.9395 132.53 21.8003 132.53 22.9075V30.8656C132.53 30.9869 132.627 31.0886 132.753 31.0886H136.293C136.415 31.0886 136.516 30.9908 136.516 30.8656V22.4106C136.516 20.4191 135.965 18.8463 134.873 17.7273H134.869Z" fill="white"/>
<path d="M153.223 24.9264C153.332 24.9264 153.426 24.8482 153.442 24.7386C153.501 24.3317 153.544 23.8114 153.544 23.3536C153.544 21.9177 153.235 20.6265 152.62 19.5154C152.006 18.4003 151.13 17.5317 150.015 16.9253C148.903 16.3228 147.632 16.0137 146.231 16.0137C144.83 16.0137 143.473 16.3306 142.354 16.9527C141.231 17.5748 140.347 18.4786 139.725 19.6367C139.103 20.7909 138.79 22.1485 138.79 23.6705C138.79 25.1925 139.11 26.5227 139.74 27.6769C140.37 28.835 141.266 29.7428 142.397 30.3727C143.524 31.0026 144.815 31.3234 146.235 31.3234C147.992 31.3234 149.498 30.8578 150.707 29.9423C151.834 29.0894 152.683 27.8256 153.141 26.5032C153.192 26.3623 153.078 26.2136 152.929 26.2136H149.103C149.021 26.2136 148.946 26.2606 148.911 26.331C148.352 27.3796 147.425 27.9704 146.161 27.9704C145.261 27.9704 144.494 27.6848 143.88 27.1214C143.301 26.5892 142.952 25.8537 142.847 24.9303H153.231L153.223 24.9264ZM146.129 19.3432C147.049 19.3432 147.831 19.6171 148.465 20.157C149.06 20.6657 149.377 21.3191 149.428 22.1485H142.878C143.031 21.2956 143.387 20.6187 143.938 20.1297C144.525 19.6093 145.265 19.3432 146.129 19.3432Z" fill="white"/>
<path d="M159.71 11.3774H156.173C156.05 11.3774 155.95 11.4773 155.95 11.6005V30.8658C155.95 30.9889 156.05 31.0888 156.173 31.0888H159.71C159.833 31.0888 159.933 30.9889 159.933 30.8658V11.6005C159.933 11.4773 159.833 11.3774 159.71 11.3774Z" fill="white"/>
</g>
<path d="M27.0654 0C35.6171 0.000248272 42.5506 6.92922 42.5527 15.4775V27.0479C42.5526 35.596 35.6191 42.5251 27.0654 42.5254H15.4873C6.93352 42.5253 0.000173975 35.5961 0 27.0479V15.4775C0 6.92913 6.93341 0.000106672 15.4873 0H27.0654ZM15.4873 2.50781C8.33015 2.50792 2.50879 8.32497 2.50879 15.4775V27.0479C2.50896 34.2003 8.33026 40.0175 15.4873 40.0176H27.0654C34.2224 40.0173 40.0428 34.2002 40.043 27.0479V15.4775C40.043 8.32506 34.2225 2.50806 27.0654 2.50781H15.4873ZM21.2812 9.1748C27.9396 9.1748 33.3701 14.6127 33.3701 21.2656C33.3701 22.9207 33.0355 24.4956 32.4307 25.9346V25.9395C32.0562 26.832 31.9883 27.827 32.2227 28.7676L32.8789 31.3955C33.103 32.276 32.3023 33.0805 31.415 32.8584L28.7852 32.2012C27.8438 31.969 26.8484 32.036 25.9551 32.4102C24.5169 33.0146 22.9398 33.3486 21.2812 33.3486C14.623 33.3485 9.18069 27.9185 9.18066 21.2656C9.17666 14.5867 14.623 9.1749 21.2812 9.1748ZM17.4111 21.9004C17.2469 21.5842 16.8622 21.4614 16.5537 21.6436L14.3887 22.9404C14.1143 23.1065 14.0101 23.459 14.1621 23.7412C15.5222 26.2631 18.195 27.9785 21.2617 27.9785H21.2695C24.3362 27.9785 27.0061 26.265 28.3682 23.7412C28.5204 23.459 28.42 23.1065 28.1416 22.9404L25.9766 21.6436C25.6721 21.4616 25.2814 21.5862 25.1191 21.9004C24.4 23.2972 22.946 24.2538 21.2656 24.2539C19.5851 24.2539 18.1303 23.2973 17.4111 21.9004Z" fill="white"/>
<defs>
<clipPath id="clip0_3783_1441">
<rect width="109.277" height="20.4255" fill="white" transform="translate(50.7236 11.2339)"/>
</clipPath>
</defs>
</svg>
